<?xml version="1.0" encoding="utf-8"?>
<!-- Generator: Adobe Illustrator 25.1.0, SVG Export Plug-In . SVG Version: 6.00 Build 0)  -->
<svg version="1.1" id="Livello_1" xmlns="http://www.w3.org/2000/svg" xmlns:xlink="http://www.w3.org/1999/xlink" x="0px" y="0px"
	 viewBox="0 0 1190.55 841.89" style="enable-background:new 0 0 1190.55 841.89;" xml:space="preserve">
<style type="text/css">
	.st0{fill:#010202;}
</style>
<g>
	<g>
		<polygon class="st0" points="341.82,381.31 311.55,381.31 304.93,381.31 292.78,381.31 274.66,381.31 250.41,381.31 
			243.78,381.31 213.51,381.31 213.51,387.93 243.78,387.93 243.78,459.6 250.41,459.6 250.41,387.93 274.66,387.93 292.78,387.93 
			304.93,387.93 304.93,459.6 311.55,459.6 311.55,387.93 341.82,387.93 		"/>
		
			<rect x="327.74" y="417.14" transform="matrix(-1.836970e-16 1 -1 -1.836970e-16 787.3488 53.5641)" class="st0" width="78.29" height="6.63"/>
		<path class="st0" d="M167.69,381.31c-21.64,0-39.19,17.55-39.19,39.19s17.55,39.19,39.19,39.19c21.64,0,39.19-17.55,39.19-39.19
			S189.34,381.31,167.69,381.31z M167.69,453.01c-17.96,0-32.51-14.56-32.51-32.51c0-17.96,14.56-32.51,32.51-32.51
			s32.51,14.56,32.51,32.51C200.21,438.46,185.65,453.01,167.69,453.01z"/>
		<path class="st0" d="M448.67,447.59c-5.15,3.42-11.33,5.42-17.97,5.42c-17.96,0-32.51-14.56-32.51-32.51
			c0-17.96,14.56-32.51,32.51-32.51c6.65,0,12.82,2,17.97,5.42l4.8-4.8c-6.42-4.59-14.28-7.3-22.77-7.3
			c-21.64,0-39.19,17.55-39.19,39.19s17.55,39.19,39.19,39.19c8.49,0,16.35-2.71,22.77-7.3L448.67,447.59z"/>
		<path class="st0" d="M524.68,459.66h6.99l-28.45-78.3h-3.48h-3.55h-3.5l-28.45,78.3h7l13-35.72h27.45L524.68,459.66z
			 M486.69,417.19l11.27-30.95l11.26,30.95H486.69z"/>
	</g>
	<g>
		
			<rect x="1005.79" y="417.18" transform="matrix(-1.836970e-16 1 -1 -1.836970e-16 1465.4253 -624.4422)" class="st0" width="78.29" height="6.63"/>
		<rect x="601.87" y="381.32" class="st0" width="66.6" height="6.63"/>
		<rect x="601.87" y="417.18" class="st0" width="66.6" height="6.63"/>
		<rect x="601.87" y="453.01" class="st0" width="66.6" height="6.63"/>
		<path class="st0" d="M755.56,459.66l-20.91-35.72c10.46-0.5,20.88-3.84,20.88-21.39c0-21.2-14.93-21.2-24.64-21.2h-34.03h-6.63
			v78.31h6.63l0-35.72h30.22l20.91,35.72H755.56z M696.86,387.95h34.1c7.96,0.15,18.29-1.58,18.29,14.6
			c0,15.78-9.57,14.64-18.34,14.64h-34.04L696.86,387.95z"/>
		<rect x="865.62" y="381.33" class="st0" width="66.6" height="6.63"/>
		<rect x="865.62" y="417.19" class="st0" width="66.6" height="6.63"/>
		<rect x="865.62" y="453.03" class="st0" width="66.6" height="6.63"/>
		<path class="st0" d="M843.24,459.63l-20.91-35.72c10.46-0.5,20.88-3.84,20.88-21.39c0-21.2-14.93-21.2-24.64-21.2h-34.03h-6.63
			v78.31h6.63l0-35.72h30.22l20.91,35.72H843.24z M784.54,387.95h34.08c7.99,0.15,18.3-1.6,18.3,14.58
			c0,15.78-9.57,14.64-18.34,14.64h-34.04L784.54,387.95z"/>
		<path class="st0" d="M999.07,423.91c10.45-0.13,20.88-3.84,20.88-21.39c0-21.2-14.93-21.2-24.64-21.2h-34.03h-6.63v78.31h6.63
			l0-35.72h30.22H999.07z M961.28,387.95h34.05c7.67,0.11,18.34-1.61,18.34,14.57c0,15.78-9.57,14.64-18.34,14.64h-34.04
			L961.28,387.95z"/>
	</g>
</g>
</svg>
