<?xml version="1.0" encoding="utf-8"?>
<!-- Generator: Adobe Illustrator 16.0.0, SVG Export Plug-In . SVG Version: 6.00 Build 0)  -->
<!DOCTYPE svg PUBLIC "-//W3C//DTD SVG 1.0//EN" "http://www.w3.org/TR/2001/REC-SVG-20010904/DTD/svg10.dtd">
<svg version="1.0" xmlns="http://www.w3.org/2000/svg" xmlns:xlink="http://www.w3.org/1999/xlink" x="0px" y="0px" width="792px"
	 height="612px" viewBox="0 0 792 612" enable-background="new 0 0 792 612" xml:space="preserve">
<g id="Layer_1">
</g>
<g id="Layer_2">
	<g>
		<path fill="#231F20" d="M353.826,135.64c3.267,8.168,21.238,50.645,21.238,50.645c3.268,8.168,8.168,17.971,6.535,27.773
			c-1.634,9.802-8.168,22.872-8.168,22.872s6.535,4.901,6.535,11.436s-3.268,9.802-8.168,9.802c-4.901,0-9.803-8.168-21.239-8.168
			s-13.069,8.168-13.069,11.436c0,3.268,3.267,8.169,8.168,8.169c4.901,0,11.436-3.268,11.436-9.803c0,0,3.268,0,4.901,4.901
			c1.634,4.902,6.535,6.535,9.803,6.535c6.535,0,9.802-6.535,11.436-8.169c0.907-0.906,1.634-1.634,3.268-1.634
			c2.082,0.069,3.995,0.728,4.901,1.634c1.633,1.634,4.901,8.169,11.436,8.169c3.268,0,8.169-1.633,9.803-6.535
			c1.633-4.901,4.901-4.901,4.901-4.901c0,6.535,6.535,9.803,11.437,9.803c4.9,0,8.168-4.902,8.168-8.169
			c0-3.267-1.634-11.436-13.069-11.436c-11.437,0-16.338,8.168-21.239,8.168s-8.168-3.268-8.168-9.802s6.535-11.436,6.535-11.436
			s-6.535-13.07-8.168-22.872c-1.633-9.802,3.268-19.605,6.535-27.773c0,0,24.507-50.645,26.141-53.913
			c1.634-3.268,11.436-11.437,11.436-11.437h-34.309c3.268,0,11.436,4.901,11.436,8.168c0,3.268,0,3.268-1.633,8.169
			c-1.634,4.901-19.605,42.477-19.605,42.477s-19.604-44.11-19.604-49.012c0-4.901,11.436-9.802,11.436-9.802h-45.744
			C340.756,122.57,350.558,127.471,353.826,135.64z"/>
		<path fill="#231F20" d="M301.547,245.099c27.772,0,45.744-14.704,53.912-29.407c0,0,13.07,0,17.972,4.901
			c0,0-60.448-138.866-63.715-148.668c-3.268-9.803,3.267-21.239,6.535-26.14l-37.576,13.07c0,0,6.535,3.267,9.802,14.704
			c3.268,11.436,22.873,60.448,22.873,60.448s-22.873-6.535-39.209,1.634c-16.337,8.168-26.14,29.407-26.14,47.377
			C246,200.989,260.703,245.099,301.547,245.099z M293.378,138.907c35.941,0,47.378,66.983,47.378,70.25
			c0,3.268-4.901,24.506-27.773,24.506c-26.14,0-45.744-31.041-45.744-58.814S285.209,138.907,293.378,138.907z"/>
		<path fill="#231F20" d="M466.591,73.741c-3.558,9.701-68.104,146.71-68.104,146.71c5.045-4.753,18.109-4.365,18.109-4.365
			c7.729,14.94,25.254,30.17,53.016,30.996c40.825,1.213,56.832-42.441,57.366-60.404c0.533-17.963-8.633-39.484-24.721-48.133
			c-16.087-8.65-39.145-2.798-39.145-2.798s21.052-48.408,24.657-59.742s10.237-14.406,10.237-14.406l-37.172-14.18
			C463.954,52.415,470.147,64.04,466.591,73.741z M480.93,141.179c8.166,0.243,25.887,8.942,25.062,36.702
			c-0.824,27.762-21.344,58.206-47.472,57.431c-22.861-0.68-27.131-22.055-27.033-25.32
			C431.584,206.725,445.004,140.112,480.93,141.179z"/>
		<path fill="#231F20" d="M469.819,289.209c0-4.901-4.9-14.703-14.703-14.703c-9.802,0-16.337,13.07-17.971,16.337
			c-1.634,3.268-3.268,8.168-3.268,3.268c0-4.901-6.534-19.604-21.238-19.604s-19.605,16.337-19.605,16.337l-4.901-1.634H386.5
			l-4.901,1.634c0,0-4.901-16.337-19.605-16.337c-14.703,0-21.238,14.703-21.238,19.604c0,4.901-1.634,0-3.267-3.268
			c-1.634-3.267-8.169-16.337-17.971-16.337c-9.802,0-14.704,9.802-14.704,14.703c0,4.901,11.436,19.605,22.872,19.605
			s21.238-8.169,24.506-11.437c3.267-3.267,13.07-3.267,19.605,0c0,0,6.535,4.902,6.535,11.437c0,6.535-6.535,14.703-11.436,19.604
			v3.268c0,0,3.268,1.634,4.901,4.9c1.634,3.268,14.703,75.151,14.703,80.053h1.634c0-4.901,13.069-76.785,14.703-80.053
			c1.634-3.267,4.901-4.9,4.901-4.9v-3.268c-4.901-4.901-11.436-13.069-11.436-19.604c0-6.535,6.535-11.437,6.535-11.437
			c6.535-3.267,16.337-3.267,19.605,0c3.268,3.268,13.069,11.437,24.506,11.437C458.384,308.814,469.819,294.111,469.819,289.209z"
			/>
		<path fill="#231F20" d="M112.276,456.815c-2.596-3.675-5.99-6.201-10.181-7.579c-2.461-0.811-5.542-1.242-9.247-1.297H67.092
			v59.737h25.756c9.031,0,15.71-3.715,20.036-11.145c3.19-5.512,4.786-12.24,4.786-20.184c0-3.134-0.379-6.43-1.136-9.889
			C115.777,463.002,114.358,459.787,112.276,456.815z M103.078,488.589c-2.327,5.809-6.44,8.713-12.339,8.713H79.21v-38.987h11.528
			c5.683,0,9.478,1.628,11.385,4.884s2.862,7.923,2.862,14.002C104.985,481.604,104.349,485.4,103.078,488.589z"/>
		<path fill="#231F20" d="M139.741,447.939l-21.324,59.737h13.057l4.05-12.279h21.999l3.942,12.279H175l-21.135-59.737H139.741z
			 M138.919,485.103l7.753-23.506l7.546,23.506H138.919z"/>
		<polygon fill="#231F20" points="221.361,447.939 208.393,447.939 195.302,493.29 182.333,447.939 169,447.939 189.202,507.677 
			200.995,507.677 		"/>
		<rect x="230.22" y="447.939" fill="#231F20" width="12.401" height="59.737"/>
		<path fill="#231F20" d="M287.636,449.236c-2.461-0.811-5.542-1.242-9.247-1.297h-25.756v59.737h25.756
			c9.031,0,15.71-3.715,20.036-11.145c3.19-5.512,4.786-12.24,4.786-20.184c0-3.134-0.379-6.43-1.136-9.889
			c-0.757-3.458-2.176-6.673-4.258-9.645C295.22,453.141,291.827,450.614,287.636,449.236z M288.618,488.589
			c-2.327,5.809-6.44,8.713-12.339,8.713H264.75v-38.987h11.528c5.683,0,9.478,1.628,11.385,4.884s2.862,7.923,2.862,14.002
			C290.526,481.604,289.89,485.4,288.618,488.589z"/>
		<path fill="#231F20" d="M381.34,499.166c1.773-2.81,2.66-5.984,2.66-9.524c0-3.431-0.776-6.349-2.327-8.754
			c-1.551-2.404-3.852-4.16-6.9-5.268c2.007-1.027,3.525-2.162,4.556-3.404c1.844-2.216,2.767-5.147,2.767-8.795
			c0-3.539-0.915-6.579-2.742-9.119c-3.037-4.133-8.198-6.254-15.482-6.362h-28.869v59.737h26.917c3.035,0,5.849-0.27,8.441-0.811
			c2.593-0.54,4.843-1.54,6.75-2.999C378.802,502.598,380.212,501.03,381.34,499.166z M346.917,458.314h12.995
			c2.861,0,5.214,0.311,7.06,0.933c2.139,0.891,3.208,2.729,3.208,5.512c0,2.512-0.809,4.262-2.427,5.248s-3.723,1.479-6.317,1.479
			h-14.519V458.314z M367.47,496.248c-1.442,0.703-3.459,1.054-6.049,1.054h-14.503v-15.928h14.703
			c2.564,0.027,4.554,0.365,5.97,1.014c2.537,1.162,3.806,3.297,3.806,6.403C371.396,492.466,370.087,494.951,367.47,496.248z"/>
		<polygon fill="#231F20" points="434.768,458.517 434.768,447.939 390.958,447.939 390.958,507.677 436.227,507.677 
			436.227,496.937 403.156,496.937 403.156,481.577 432.174,481.577 432.174,471.202 403.156,471.202 403.156,458.517 		"/>
		<path fill="#231F20" d="M470.139,457.464c4.367,0,7.662,1.297,9.886,3.891c1.243,1.459,2.263,3.62,3.058,6.484h12.482
			c-0.188-3.729-1.551-7.443-4.09-11.146c-4.598-6.592-11.868-9.889-21.812-9.889c-7.431,0-13.552,2.459-18.363,7.376
			c-5.533,5.647-8.3,13.685-8.3,24.113c0,9.646,2.433,17.238,7.297,22.777c4.864,5.512,11.547,8.268,20.047,8.268
			c6.869,0,12.502-2.04,16.899-6.12c4.396-4.079,7.13-9.375,8.199-15.887h-12.401c-0.819,3.08-1.851,5.39-3.092,6.931
			c-2.247,2.863-5.512,4.295-9.793,4.295c-4.176,0-7.617-1.667-10.326-5.005c-2.709-3.336-4.064-8.354-4.064-15.056
			c0-6.7,1.284-11.881,3.852-15.542C462.184,459.294,465.691,457.464,470.139,457.464z"/>
		<polygon fill="#231F20" points="530.975,472.508 555.489,447.939 539.359,447.939 516.279,472.553 516.279,447.939 504,447.939 
			504,507.677 516.279,507.677 516.279,487.696 522.291,481.601 540.696,507.677 556.746,507.677 		"/>
		<polygon fill="#231F20" points="573.174,481.01 596.396,481.01 596.396,507.677 608.797,507.677 608.797,447.939 596.396,447.939 
			596.396,470.716 573.174,470.716 573.174,447.939 560.772,447.939 560.772,507.677 573.174,507.677 		"/>
		<path fill="#231F20" d="M636.215,447.939l-21.324,59.737h13.057l4.05-12.279h21.999l3.941,12.279h13.536l-21.135-59.737H636.215z
			 M635.393,485.103l7.753-23.506l7.546,23.506H635.393z"/>
		<path fill="#231F20" d="M717.04,447.939l-10.793,46.972l-10.874-46.972h-18.164v59.737h11.632v-40.406
			c0-1.161-0.014-2.789-0.04-4.883c-0.027-2.094-0.041-3.709-0.041-4.844l11.239,50.133h12.132l11.32-50.133
			c0,1.135-0.014,2.75-0.041,4.844c-0.026,2.094-0.04,3.722-0.04,4.883v40.406h11.632v-59.737H717.04z"/>
		<polygon fill="#231F20" points="196.38,578.826 204.449,578.826 204.449,562.531 221.667,562.531 221.667,555.781 
			204.449,555.781 204.449,546.843 224.092,546.843 224.092,540.014 196.38,540.014 		"/>
		<path fill="#231F20" d="M265.658,575.636c-0.143-0.633-0.214-1.837-0.214-3.612v-2.61c0-2.725-0.374-4.75-1.121-6.077
			c-0.748-1.327-2.017-2.352-3.81-3.072c2.145-0.738,3.682-1.999,4.614-3.783c0.932-1.784,1.397-3.6,1.397-5.445
			c0-1.529-0.24-2.892-0.72-4.087s-1.131-2.285-1.954-3.27c-0.994-1.195-2.207-2.101-3.638-2.716s-3.476-0.949-6.132-1.002h-18.59
			v38.865h7.937v-15.24h7.932c2.261,0,3.803,0.413,4.626,1.239s1.251,2.479,1.285,4.957l0.053,3.612
			c0.017,1.143,0.132,2.259,0.343,3.349c0.105,0.527,0.281,1.222,0.527,2.083h8.965v-0.976
			C266.372,577.376,265.872,576.638,265.658,575.636z M256.073,556.52c-0.869,0.422-2.17,0.633-3.907,0.633h-8.74v-10.441h8.965
			c1.669,0,2.921,0.229,3.756,0.686c1.486,0.809,2.229,2.391,2.229,4.746C258.377,554.322,257.609,555.781,256.073,556.52z"/>
		<path fill="#231F20" d="M291.356,539.961l-13.874,38.865h8.495l2.635-7.989h14.312l2.564,7.989h8.807l-13.75-38.865H291.356z
			 M290.821,564.14l5.044-15.293l4.91,15.293H290.821z"/>
		<path fill="#231F20" d="M343.241,564.456h8.991c-0.405,2.533-1.477,4.582-3.217,6.146s-3.973,2.345-6.697,2.345
			c-2.778,0-5.256-0.991-7.436-2.974c-2.18-1.982-3.27-5.359-3.27-10.132c0-4.737,1.006-8.285,3.019-10.645
			c2.013-2.36,4.583-3.54,7.712-3.54c1.635,0,3.12,0.29,4.456,0.87c2.39,1.055,3.893,2.909,4.509,5.563h7.989
			c-0.439-3.744-2.158-6.869-5.155-9.373c-2.997-2.506-6.965-3.758-11.905-3.758c-5.695,0-10.274,1.897-13.737,5.691
			c-3.463,3.795-5.194,8.837-5.194,15.125c0,6.219,1.714,11.12,5.142,14.703c3.287,3.566,7.505,5.35,12.656,5.35
			c3.128,0,5.765-0.656,7.91-1.969c1.248-0.752,2.654-2.047,4.219-3.885l0.817,4.852h5.379V557.97h-16.189V564.456z"/>
		<path fill="#231F20" d="M403.475,575.636c-0.143-0.633-0.215-1.837-0.215-3.612v-2.61c0-2.725-0.373-4.75-1.12-6.077
			s-2.017-2.352-3.81-3.072c2.145-0.738,3.682-1.999,4.613-3.783s1.398-3.6,1.398-5.445c0-1.529-0.24-2.892-0.721-4.087
			s-1.131-2.285-1.954-3.27c-0.994-1.195-2.207-2.101-3.638-2.716c-1.432-0.615-3.476-0.949-6.132-1.002h-18.59v38.865h7.937v-15.24
			h7.932c2.261,0,3.803,0.413,4.626,1.239s1.251,2.479,1.285,4.957l0.053,3.612c0.017,1.143,0.132,2.259,0.343,3.349
			c0.105,0.527,0.281,1.222,0.527,2.083h8.965v-0.976C404.188,577.376,403.689,576.638,403.475,575.636z M393.89,556.52
			c-0.869,0.422-2.17,0.633-3.907,0.633h-8.74v-10.441h8.965c1.669,0,2.921,0.229,3.756,0.686c1.486,0.809,2.229,2.391,2.229,4.746
			C396.194,554.322,395.426,555.781,393.89,556.52z"/>
		<path fill="#231F20" d="M429.174,539.961l-13.873,38.865h8.494l2.635-7.989h14.312l2.564,7.989h8.807l-13.75-38.865H429.174z
			 M428.639,564.14l5.045-15.293l4.908,15.293H428.639z"/>
		<polygon fill="#231F20" points="486.807,567.061 471.379,539.961 462.865,539.961 462.865,578.826 470.433,578.826 
			470.433,551.25 486.255,578.826 494.374,578.826 494.374,539.961 486.807,539.961 		"/>
		<path fill="#231F20" d="M523.903,546.157c2.842,0,4.985,0.844,6.432,2.531c0.81,0.949,1.473,2.355,1.989,4.219h8.121
			c-0.122-2.426-1.009-4.843-2.66-7.251c-2.992-4.289-7.722-6.434-14.191-6.434c-4.834,0-8.816,1.6-11.946,4.799
			c-3.601,3.674-5.4,8.903-5.4,15.688c0,6.275,1.582,11.215,4.747,14.818c3.165,3.586,7.513,5.379,13.043,5.379
			c4.469,0,8.134-1.327,10.995-3.981c2.86-2.654,4.638-6.1,5.334-10.336h-8.068c-0.533,2.004-1.204,3.507-2.012,4.509
			c-1.462,1.863-3.586,2.795-6.371,2.795c-2.717,0-4.956-1.085-6.719-3.257c-1.763-2.17-2.644-5.436-2.644-9.795
			s0.835-7.729,2.505-10.111C518.729,547.349,521.01,546.157,523.903,546.157z"/>
		<polygon fill="#231F20" points="561.045,561.846 579.924,561.846 579.924,555.096 561.045,555.096 561.045,546.843 
			581.611,546.843 581.611,539.961 553.108,539.961 553.108,578.826 582.561,578.826 582.561,571.839 561.045,571.839 		"/>
		<path fill="#231F20" d="M621.676,559.525c-1.492-1.178-3.732-2.118-6.722-2.821l-6.82-1.608c-2.632-0.615-4.353-1.151-5.163-1.608
			c-1.262-0.686-1.893-1.723-1.893-3.111c0-1.512,0.64-2.689,1.919-3.533s2.991-1.266,5.137-1.266c1.928,0,3.54,0.325,4.838,0.976
			c1.946,0.984,2.991,2.646,3.136,4.983h7.805c-0.143-4.131-1.677-7.281-4.604-9.452s-6.464-3.257-10.609-3.257
			c-4.965,0-8.729,1.151-11.291,3.454s-3.844,5.194-3.844,8.675c0,3.814,1.31,6.618,3.929,8.411
			c1.547,1.072,4.388,2.065,8.523,2.979l4.207,0.923c2.463,0.527,4.262,1.134,5.396,1.819c1.134,0.703,1.701,1.696,1.701,2.979
			c0,2.197-1.157,3.7-3.473,4.509c-1.221,0.422-2.81,0.633-4.766,0.633c-3.267,0-5.573-0.8-6.919-2.399
			c-0.735-0.879-1.229-2.206-1.48-3.981h-7.752c0,4.043,1.466,7.221,4.397,9.532s6.956,3.467,12.072,3.467
			c5.011,0,8.888-1.174,11.633-3.52c2.745-2.348,4.118-5.296,4.118-8.847C625.151,563.999,623.993,561.354,621.676,559.525z"/>
	</g>
</g>
</svg>
